<?xml version="1.0" encoding="UTF-8"?>
<svg width="48" height="16" viewBox="0 0 48 16" fill="none" xmlns="http://www.w3.org/2000/svg">
<path d="M19 1C18.4477 1 18 1.44769 18 2V4H19V3C19 2.44769 19.4477 2 20 2H28C28.5523 2 29 2.44769 29 3V8H30V2C30 1.44769 29.5523 1 29 1H19Z" fill="#898989"/>
<path d="M30 12H29V13C29 13.5523 28.5523 14 28 14H20C19.4477 14 19 13.5523 19 13V8H18V14C18 14.5523 18.4477 15 19 15H29C29.5523 15 30 14.5523 30 14V12Z" fill="#898989"/>
<path d="M18.5 6L21 9H16L18.5 6Z" fill="#898989"/>
<path d="M29.5 10L27 7L32 7L29.5 10Z" fill="#898989"/>
<path d="M21 3H27V4H21V3Z" fill="#898989"/>
<path d="M21 5H27V6H21V5Z" fill="#898989"/>
<path d="M21 5H27V6H21V5Z" fill="#898989"/>
<path d="M22 7H26V8H22V7Z" fill="#898989"/>
<path d="M22 9H27V10H22V9Z" fill="#898989"/>
<path d="M21 11H27V12H21V11Z" fill="#898989"/>
<path d="M35 1C34.4477 1 34 1.44769 34 2V4H35V3C35 2.44769 35.4477 2 36 2H44C44.5523 2 45 2.44769 45 3V8H46V2C46 1.44769 45.5523 1 45 1H35Z" fill="#A5BE8F"/>
<path d="M46 12H45V13C45 13.5523 44.5523 14 44 14H36C35.4477 14 35 13.5523 35 13V8H34V14C34 14.5523 34.4477 15 35 15H45C45.5523 15 46 14.5523 46 14V12Z" fill="#A5BE8F"/>
<path d="M34.5 6L37 9H32L34.5 6Z" fill="#A5BE8F"/>
<path d="M45.5 10L43 7L48 7L45.5 10Z" fill="#A5BE8F"/>
<path d="M37 3H43V4H37V3Z" fill="#A5BE8F"/>
<path d="M37 5H43V6H37V5Z" fill="#A5BE8F"/>
<path d="M37 5H43V6H37V5Z" fill="#A5BE8F"/>
<path d="M38 7H42V8H38V7Z" fill="#A5BE8F"/>
<path d="M38 9H43V10H38V9Z" fill="#A5BE8F"/>
<path d="M37 11H43V12H37V11Z" fill="#A5BE8F"/>
</svg>
